<svg xmlns="http://www.w3.org/2000/svg" width="533.167" height="640.048" viewBox="0 0 5554 6667" xmlns:xlink="http://www.w3.org/1999/xlink" shape-rendering="geometricPrecision" text-rendering="geometricPrecision" image-rendering="optimizeQuality" fill-rule="evenodd" clip-rule="evenodd"><defs><style><![CDATA[
    .str0 {stroke:#FEFEFE;stroke-width:83.3307;stroke-linecap:round;stroke-linejoin:round}
    .str1 {stroke:#2B2A29;stroke-width:83.3307;stroke-linecap:round;stroke-linejoin:round}
    .fil6 {fill:none}
    .fil9 {fill:#5B5B5B}
    .fil10 {fill:#434242}
    .fil8 {fill:#2B2A29}
    .fil3 {fill:#FCC204}
    .fil5 {fill:#FCC204}
    .fil16 {fill:#CAA21A}
    .fil15 {fill:#CAA21A}
    .fil17 {fill:#030709}
    .fil2 {fill:#18171A}
    .fil33 {fill:#696A6B}
    .fil24 {fill:#838384}
    .fil23 {fill:#8B8B8C}
    .fil34 {fill:#96969A}
    .fil13 {fill:#9A9B9D}
    .fil42 {fill:#9CA3A8}
    .fil7 {fill:#9D9DA2}
    .fil11 {fill:#A2A3A5}
    .fil36 {fill:#A4A5AA}
    .fil38 {fill:#A7A8AC}
    .fil41 {fill:#ABABAE}
    .fil37 {fill:#ACADB2}
    .fil40 {fill:#B2B2B3}
    .fil45 {fill:#B5B6BA}
    .fil43 {fill:#BBBBBD}
    .fil26 {fill:#BCBDC1}
    .fil39 {fill:#C1C1C1}
    .fil28 {fill:#C5C5C5}
    .fil35 {fill:#C5C6CB}
    .fil18 {fill:#C6C6CA}
    .fil25 {fill:#C6C9C9}
    .fil4 {fill:#C7C8CC}
    .fil0 {fill:#C7C8CC}
    .fil20 {fill:#C9CACD}
    .fil31 {fill:#D3D3D4}
    .fil44 {fill:#D5D6DA}
    .fil30 {fill:#DBDBDC}
    .fil27 {fill:#DCDEE1}
    .fil29 {fill:#DCE3E8}
    .fil32 {fill:#E3E4E4}
    .fil14 {fill:#F3F3F3}
    .fil12 {fill:#F5F7F9}
    .fil22 {fill:#F6F6F6}
    .fil19 {fill:#F9F9F9}
    .fil21 {fill:#FBFBFB}
    .fil1 {fill:#FFE100}
   ]]></style><clipPath id="id0"><path d="M1802 1868h1736v2972H1802V1868z"/></clipPath><clipPath id="id1"><path d="M1262 1076h2822v4515H1262z"/></clipPath></defs><g id="Layer_x0020_1"><g id="_390289697008"><ellipse class="fil0" cx="2826" cy="6496" rx="1841" ry="171"/><path class="fil1" d="M1842 216c-21 25-166 102-207 131-55 38-142 110-185 148-44 40-116 114-164 170-28 34-116 169-148 189-2 15-149 294-173 360-228 645 63 1324 62 1387 25 31 191 413 237 495 90 157 182 289 269 457 98 190 137 310 165 559 17 154 72 486 196 538l58 4c434 74 1070 57 1521 2 123 28 190-161 224-255 38-105 44-278 71-398 33-141 211-623 285-665-78 166-140 282-204 471-30 88-51 177-68 271-7 34-32 294-31 311l8 13 33-227c19-404 316-880 475-1183 220-420 364-722 337-1321-41-917-826-1525-1645-1660-219-25-415-14-620 28-80 15-198 52-266 77-50 19-207 94-230 98z"/><path class="fil2" d="M1952 4654l-58-4c35 79 34 18 32 151-1 72 20 122 21 153 0 45-35 89-13 147 17 44 76 47 49 122-20 55-51 9-58 124-2 50-37 76-64 115-16 23-139 201-148 208-113-43-261-131-377-184-305-139-170-143-305-254-6-21-3-39-63-45-18-2-16-1-36 2-20 18-57 13-90 23-35 12-20 45-29 90-48 1-58-39-153-24-12 29-2 18-5 35 0 1-1 3-1 5 0 1-1 3-2 5 0 1-1 4-2 6-1 5-2-4-6 20 18 12 31 18 61 23l136 105c283 44 192-57 450 122 75 52 280 215 340 241-27 102-134 131 8 274 42 42 213 158 231 182l-80 77c-44 246 154 225 359 207 178-16 355-29 529-62 260-50 850 167 1021 26 55-156 46-131-39-248 61-62 161-105 226-177 114-125 61-164 0-276 116-99 302-220 435-306 141-91 148-38 315-59 44-5 222-113 225-161l-4-39-6-8-146 41-9-94-120-28c-65-12-71 19-101 58-24 30-63 49-86 85-41 63 9 53-73 89-49 22-74 44-122 56l-418 207c-52-120-260-296-272-413l66-59c23-101-108-94-52-205 39-76 69-115 68-215-1-144 8-95 78-194 37-51 83-127 94-194l-8-13-96 180c-79 118-82 111-154 114-173 8-347 20-522 24-210 3-883 12-1049-39 2-26-7-11 23-16zm2551 680l112-4 3-59-67-24-48 87zm-1009 409c-3 55-13 109-12 153 38-2 136-53 182-67l-94-124c-29 6-52 23-76 38zm-1659 75c12 8 143 54 163 59-19-32-126-92-4-162-2-25-7-55-19-74-29 6-77 89-106 128-13 18-25 31-34 49zm-801-557c8 37 40 48 64 78 41 49-2 54 61 84 100 49 566 269 584 290 63-10-72 34 84-166 38-50 86-163 143-155l26 75c-80 63-88 26-61 144 9 38-55 102-82 142-60 87-53 48-170 70-64 12-113-52-156-84-72-53-357-263-444-281-69-15-180 36-226-16-31 4-60-29-81-46-36-27-57-27-93-48 0 0-14-17 35-8 16 2 29 10 39 15 26 14 41 29 69 36-22-41-89-66-143-86 11-9-8-3 16-7 67-11 108 53 159 60-21-29-25-7-26-53 0-17 7-53 11-66l119-32c-10 34-64 40-95 46l1 94 119 5-5 22c9 17-9 2 22 8 60-120-48-92-9-166 21 10 6 0 20 19l19 26zm-143 10l1 58 108 4-38-88c-19 5-53 15-71 26z"/><path class="fil3" d="M1905 6317c-134 18-132 213-10 242 86 20 333-8 428-20 262-32 529-55 766-132 11-11 8-9 24-19 11-7 10-5 23-11 189-81 264-134 436-239 45-27 103-79 164-68 51 85-14 113 27 119 37-9 207-157 160-226l-23 29c0-43 13-23-29-60-2-1-8-6-9-8-19-17 0 7-11-11-13-20 0 6-7-15-25-84 37 52-3-19-24 29-76 10-137 31-202 66-563 284-791 365-227 81-817 338-1044 173l36-131z"/><path class="fil4" d="M1232 6489c15 55 320 74 412 100 116 33-65 34 83 49 247 24 1063 28 1336 21 185-5 492-54 642-43l96-29-2-14-100-29c-171 141-761-76-1021-26-174 33-351 46-529 62-205 18-403 39-359-207-57 14-139 25-196 32-192 24-108 5-85 40l-277 44z"/><path class="fil5" d="M1992 4923c62-4 139 13 209 15l657 6c142-1 292-1 428-17 153-17 251 2 256-186h17l-1-9-21 1-21 106-32-30-33-67-29 75c-40-54 11-72-44-54-31 10-14 9-52 1-38-7-130 6-176 11-358 35-781 6-1137 15l-21 133zM1633 5896c-139 78 78 267 129 288 17-20 8 5 1-52-4-26-2-53 4-72 81-18 165 69 296 135 60 31 133 76 190 84 40 6 19-4 46 14 40 27 36 33 81 9 4 6 20 5 0 26l67-17c10 30 13 0-1 21-6 9-6 7-15 7l11 3 278-95-73-42c-13 18 21 21-45 20-45-2-418-173-458-189-94-39-286-122-377-144-71-16-113 23-134 4z"/><g clip-path="url(#id0)"><image x="1802" y="1868" width="1736" height="2971" xlink:href="bulb_off_Images\bulb_off_ImgID1.png"/></g><path class="fil6 str0" d="M2508 4670c-19-432 36-918-54-1325-91-406-447-844-479-1102-31-258 198-231 327-139 130 92 217 428 243 545 25 117-84 138-115 36-32-102-162-396-37-521s420-107 539 19c120 125-24 403-48 496s-74 92-79 0 0-364 54-472c55-108 135-121 233-96 97 24 298-25 274 222-25 247-334 663-403 1062-69 398-3 840-5 1270"/><path class="fil1" d="M1905 6317l-36 131c227 165 817-92 1044-173 228-81 589-299 791-365 61-21 113-2 137-31 40 71-22-65 3 19 7 21-6-5 7 15 11 18-8-6 11 11 1 2 7 7 9 8 42 37 29 17 29 60l23-29c-1-95-108-144-215-123-84 16-643 282-747 327-165 73-332 144-511 201-81 26-184 83-285 56-97-25-160-95-260-107z"/><path class="fil7" d="M3216 6018c-136-1-385 176-482 121l-231-146c158-17 339-19 501-30 77-5 280-21 350-44 14-4 42-15 53-17 47-9 34-19 41 11l14-31c-43-3-253 31-312 38-114 14-230 16-352 18-248 5-468-7-712-22 31 50 461 223 561 265 155 66 133 36 290-29 62-25 248-97 279-134z"/><path class="fil8" d="M4556 1895c0 116-12 277-33 391-5 26-9 22-18 51l3 53c52-165 78-403 78-597-1-484-171-814-408-1090-120-140-239-249-395-357-92-63-380-220-519-241l12 9c30 18 156 68 246 118 258 143 446 288 632 521 221 277 402 661 402 1142z"/><path class="fil5" d="M1743 5713c-33 28-363-148-421-172-78-32-163-93-199-109-77-34-164 47-266 10 46 52 157 1 226 16 87 18 372 228 444 281 43 32 92 96 156 84 117-22 110 17 170-70 27-40 91-104 82-142-27-118-19-81 61-144l-26-75c-57-8-105 105-143 155-156 200-21 156-84 166z"/><path class="fil9" d="M2003 4940l-11-17 21-133c356-9 779 20 1137-15 46-5 138-18 176-11 38 8 21 9 52-1 55-18 4 0 44 54l29-75 33 67 32 30 21-106 21-1-1605-8v-17c-10 89-26 208 50 233z"/><path class="fil5" d="M2031 5832c72 4 300-19 400-23 141-5 274-12 414-19 112-6 775-9 683-159-26 9-32 27-73 40-78 25-205 30-287 40-131 15-277 16-412 20-34 1-907 9-725 101zM2013 5591c245-39 582-36 846-41 130-3 497-20 619-61 57-19 119-96 46-107-26 0 15 15-52 41-135 54-566 71-708 71-51 0-749-9-769 70-14 50-2 28 18 27z"/><path class="fil1" d="M4640 5343l-14 62c-21 2-38-1-53-3-19-2-46 12-42-15-120-69 23-113-6-165-38 28-108 113-139 174-22 42-153 95-208 118-159 67-286 140-422 215-15-23 31-3-18-72-23-32-154-219-165-203-12 53 17 56 81 166 36 63 63 103 91 165 147 6 59 6 215-88 66-39 136-79 201-114 283-156 151-160 487-136l178-116-145 50 143-91-155 74 15-128-135-20 92 40-1 87z"/><path class="fil5" d="M2072 5694c133 16 562-20 729-24 118-2 661 12 676-95l-3-38c-156 30-147 44-343 57-122 9-246 18-367 23-134 6-268 6-402 9-62 1-310-1-329 64l39 4zM3216 6018l232-105c-7-30 6-20-41-11-11 2-39 13-53 17-70 23-273 39-350 44-162 11-343 13-501 30l231 146c97 55 346-122 482-121zM2012 5348c266-41 529-37 806-38 137-1 277-2 410-20 86-12 341-8 307-123-43-2 3 5-75 31-35 11-59 11-96 16-64 9-121 18-189 21-139 8-267 17-411 19l-615 24c-159 9-127 30-160 53 12 32-15 24 23 17z"/><path class="fil7" d="M1762 6184c76 85 204 119 252 145 92 50 188 114 304 61-9-8-203-82-236-96-39-18-193-88-202-121 25 5 468 270 562 169l-11-3c9 0 9 2 15-7 14-21 11 9 1-21l-67 17c20-21 4-20 0-26-45 24-41 18-81-9-27-18-6-8-46-14-57-8-130-53-190-84-131-66-215-153-296-135-6 19-8 46-4 72 7 57 16 32-1 52z"/><path class="fil5" d="M2046 5455c43 1 116-14 172-16 63-3 123-5 187-6 173-1 1030 11 1071-80l-2-53c-36 1-96 33-160 41-65 8-112 17-180 21-292 18-487 15-771 19-65 1-132 1-196 4-85 4-100-4-138 58l17 12z"/><path class="fil10" d="M3473 4644c-15 19-264 31-304 25-49 25-920 24-958 0-63 13-193-4-259-15-30 5-21-10-23 16 166 51 839 42 1049 39 175-4 349-16 522-24 72-3 75 4 154-114l96-180c-1-17 24-277 31-311 17-94 38-183 68-271 64-189 126-305 204-471-74 42-252 524-285 665-27 120-33 293-71 398-34 94-101 271-224 243z"/><path class="fil5" d="M2053 5215c101 4 248-11 361-12 127-2 248-8 373-12 110-4 654-6 689-78v-61c-119 49-182 65-336 74l-777 25c-114 2-294-14-341 59l31 5z"/><path class="fil5" d="M2009 5112c168-34 1191-13 1408-76 41-12 73-25 96-61 25-37 3-30 3-30-193 137-1112 86-1436 80-141-3-88 79-71 87z"/><path class="fil4" d="M3347 6439c-2 1-4 3-5 4-30 25-51 31-89 44-35 11-65 21-100 27 3 2 5 5 7 6l18 16c94 5 404 62 469 15l-43 6c14-27 57-27 70-103 7-39-22-104-11-119-63-73-216 90-316 104z"/><path class="fil7" d="M3089 6407c134-21 434-159 552-226-7 69-400 199-426 218l32 13c7 2 38 3 47 3 121-1 119-31 215-84 82-45 207-69 254-142-41-6 24-34-27-119-61-11-119 41-164 68-172 105-247 158-436 239-13 6-12 4-23 11-16 10-13 8-24 19zM2012 5348c-38 7-11 15-23-17 33-23 1-44 160-53l615-24c144-2 272-11 411-19 68-3 125-12 189-21 37-5 61-5 96-16 78-26 32-33 75-31-24-74-60-1-156 11-330 41-804 40-1153 53-72 2-152 2-216 21-86 25-83 102-13 130l15-34zM2031 5832c-182-92 691-100 725-101 135-4 281-5 412-20 82-10 209-15 287-40 41-13 47-31 73-40l-16-29c-81 41-50 44-166 56-207 21-395 31-606 37-154 4-705-18-775 73-1 44 24 62 47 80l19-16z"/><path class="fil5" d="M3573 5454c-37 29-91 50-57 128 15-15 6 3 18-32 0-1 7-33 8-39 19 37-5 40-13 76 20 33 25 25 39 62 22 58 111 158 119 163 57 9 80-5 151 11 43 9 75-28 109-53l401-274c107-61 217-25 262-33 1 0 16 3 38-16-336-24-204-20-487 136-65 35-135 75-201 114-156 94-68 94-215 88-28-62-55-102-91-165-64-110-93-113-81-166z"/><path class="fil7" d="M2013 5591c-20 1-32 23-18-27 20-79 718-70 769-70 142 0 573-17 708-71 67-26 26-41 52-41l-14-18c-97 94-597 87-771 90-118 2-748-12-795 79-7 62 9 79 56 93l13-35zM2131 5900c4-6-11-23 78-22l265-3c114-3 226-9 340-16 242-15 426-27 656-72l-9 37c25-23 15-29 12-69-20-2-301 35-344 41-228 33-1033 17-1096 73 14 26-10 16 98 31z"/><path class="fil5" d="M2131 5900l702 10c110-2 236 0 341-15 87-11 279-14 287-71l9-37c-230 45-414 57-656 72-114 7-226 13-340 16l-265 3c-89-1-74 16-78 22z"/><path class="fil11" d="M2009 5112c-17-8-70-90 71-87 324 6 1243 57 1436-80-131 22-215 46-359 50-137 5-273 4-410 3-222 0-567 8-768-42-11 30-29 61-30 101-1 42 30 90 60 55z"/><path class="fil1" d="M683 5348c36 21 57 21 93 48 21 17 50 50 81 46 102 37 189-44 266-10 36 16 121 77 199 109 58 24 388 200 421 172-18-21-484-241-584-290-63-30-20-35-61-84-24-30-56-41-64-78l-19-26c-14-19 1-9-20-19-39 74 69 46 9 166l-21 11c-53 24-64 19-89-11l-21-28c-1-4-4-5-5-7l-1-94c31-6 85-12 95-46l-119 32c-4 13-11 49-11 66 1 46 5 24 26 53-51-7-92-71-159-60-24 4-5-2-16 7 54 20 121 45 143 86-28-7-43-22-69-36-10-5-23-13-39-15-49-9-35 8-35 8z"/><path class="fil7" d="M2072 5694l-39-4c19-65 267-63 329-64 134-3 268-3 402-9 121-5 245-14 367-23 196-13 187-27 343-57l3 38c16-20 11-30 8-62-52 4-112 25-167 31-393 40-826 27-1203 53-74 5-125 17-98 105 33 5 33 7 55-8zM2046 5455l-17-12c38-62 53-54 138-58 64-3 131-3 196-4 284-4 479-1 771-19 68-4 115-13 180-21 64-8 124-40 160-41l2 53c18-19 13-35 8-68-33-16-125 15-173 21-185 20-410 27-596 32-134 4-275 5-412 5-103 1-333-29-285 118l28-6z"/><path class="fil1" d="M1633 5896c21 19 63-20 134-4 91 22 283 105 377 144 40 16 413 187 458 189 66 1 32-2 45-20-163-59-343-152-498-225-89-41-155-74-248-111-90-36-240-65-268 27z"/><path class="fil12" d="M1992 4923l11 17c142 10 265 31 419 33 208 2 722 10 903-13 158-21 266-25 234-219h-17c-5 188-103 169-256 186-136 16-286 16-428 17l-657-6c-70-2-147-19-209-15z"/><path class="fil7" d="M2053 5215l-31-5c47-73 227-57 341-59l777-25c154-9 217-25 336-74v61c20-19 13-38 11-72-19-1-123 29-165 34-209 27-383 27-595 30-206 2-392 15-613 15-80-1-133 5-98 103 35 2 20 5 37-8z"/><path class="fil8" d="M1099 1108c16-13 152-246 221-323 141-157 109-136 265-283 75-71 216-167 323-224 52-28 127-65 185-88l185-71c15-9 8-3 19-14-97-2-338 108-406 147-240 133-422 293-594 501-49 60-184 260-198 355z"/><path class="fil13" d="M3178 6536l-18-16c-2-1-4-4-7-6 35-6 65-16 100-27 38-13 59-19 89-44 1-1 3-3 5-4-193 3-125-41-245-8-72 20-158 32-225 52 36 18 240 52 301 53z"/><path class="fil8" d="M3715 819c-8-23 2-12-42-47l-289-239c-24-20-27-28-55-39 39 49 219 207 277 252 29 22 74 63 109 73zM3772 1031c-33-56-70-73-88-91l-413-347 458 415c12 10 28 18 43 23zM3411 870c-31-42-256-220-285-228 16 31 66 75 93 97s168 137 192 131z"/><path class="fil14" d="M3647 6551c78-38 67-151 36-199-14-22-15-15-20-17-11 15 18 80 11 119-13 76-56 76-70 103l43-6z"/><path class="fil15" d="M4531 5387c-4 27 23 13 42 15 15 2 32 5 53 3l14-62-112 9c6 22 15 23 30 38l-27-3z"/><path class="fil16" d="M1004 5382c-31-6-13 9-22-8l5-22-119-5c1 2 4 3 5 7l21 28c25 30 36 35 89 11l21-11z"/><path class="fil8" d="M995 1437l65-203c10-50 0-26-5-34-20 31-85 201-60 237zM1711 1607c30 17 15 2 28 31l33-24-19-43-31 27c-1 1-4 3-5 4s-4 3-6 5zM3371 1631c48 4 39-6 42-8-10-29 10-7-25-24-7 7-4-1-11 13-10 20 2-4-6 19zM3995 1764c24-32 7-26-9-34-5 9-15-12-8 19 5 25-2 9 17 15zM2743 2247c-1-37 8-13-13-35-27 23-27 26 13 35zM2554 1662l28 4c1-32 9-17-14-31-14 11-14 4-14 27zM2051 4006c3 12-8 10 8 16 37 12 15-2 23-8-7-12 1-29-31-8zM1722 948c8-14 13 14 6-17-3-18 5-3-13-16-24 26-28 18 7 33zM2516 923c33-17 30-17 2-33-8 9-10-2-9 15 1 18-2 5 7 18zM2047 417c9 21 0 30 31 8-11-30-9-24-31-8zM2773 694l9-13c6-34 1 21 1-18-14 3-21-4-25 12-5 23 8 14 15 19zM3317 3878c6 9 17 37 26 6 7-28 3-10-7-13-36-11-6-2-19 7zM2956 3015c14 19 5 20 29 8-17-45-19-14-29-8zM1199 1699c8 15-10 11 12 14 35 6 1 4 18-6-14-25-7-22-30-8zM1423 2479c15-20 12 29 8-13-2-21 2-4-8-19-21 15-30 15 0 32zM3897 2989c29 25 19 3 25 0-1-1 15-44-25 0zM1915 2767c17 11 16 9 30 0-23-42-20-8-30 0zM2089 3405c21-31 11-16-8-25-10 22-24 11 8 25zM2256 2716c-6-35-1-8-13-20l-15 8c6 15-1 15 28 12zM3474 4082c25-13 24-12 0-25-7 11-21 2 0 25zM4267 2408c8 6-3 26 25 0-36-33-23-2-25 0zM3672 2225c-12-38 16-26-24-20 6 23-11 12 24 20zM1670 3337c25-26 8-15 0-25-1 2-26 1 0 25zM2991 3815c-13-22 3-33-28-14 16 20-8 5 28 14zM2704 1440c30-3 39-6 9-22l-9 22zM2739 3227c19-27 6-14 0-24-8 8-31 1 0 24zM2673 304c30-5 13 0 20-16-27-13-18-7-20 16zM1617 2225c-11-31 5-15-23-22 5 27-17 11 23 22zM2288 1510c29 12 17 3 25-8-35-17-15-1-25 8zM2997 895c27 27 16 8 25 0-9-6 3-21-25 0zM3919 1176c-6-30 4-11-23-23 11 31-11 18 23 23zM3642 3570c18 13 15 10 26 0-28-27-17-6-26 0zM1576 720c4-6 19 14 0-22-31 36 0 21 0 22zM4157 1510c23-27 11-11 0-24-7 9-23 1 0 24zM2313 4502c32 14 17 5 23-9-30-12-14 3-23 9zM1585 1753c5-8 22 2 0-25-9 10-9-24-7 9 2 16-3 5 7 16zM2645 3769c14-20 10 27 7-12-2-18 2-3-7-16l-8 11c2 19-4 6 8 17zM1147 2006c13 11 10 10 24 0-4-2 20-23-24 0zM1574 1122c27-10 12 4 20-21-49 10 0 0-20 21zM3660 2399c35 25 12 6 22 0-13-9-8-9-22 0zM3430 3066c18 14 14 9 23 0-22-17-9-8-23 0zM3009 779c39-29 3-20 3-20l-3 20zM3577 1228c36 27 13 5 22 0-27-17 33-18-12-6-1 0-4 2-5 2s-3 3-5 4zM2175 1044c2-5 21 21 0-23l-8 11c11 39-24-1 8 12zM2034 4117c21 15-26 16 12 7l11-7c-2-1-5-7-6-5l-17 5zM2209 3881l-5-6c1 1 3 4 5 6z"/><path class="fil4" d="M313 6285c-34-4 17 11-77-19l-23-47c20-3 50-19 61-30 41-42-102-4-113-2-4 9-11 34-11 46 1 15 3 23 3 29-52-5-73-32-140-25-19 2-12 7-12 7 31 10 27 7 19 8-25-2-19 11-19 11 36 14 56 15 92 33 22 12 50 34 82 32 46 36 157 0 226 11 87 13 372 157 444 194 43 23 92 66 156 58 526-68 595-130 60-76-18-14-485-166-585-200-62-21-19-24-60-58-24-21-51-44-64-54-15-14-29-21-48-26-39 51 69 26 9 108zM5241 6270c34-4-17 10 77-20l23-46c-20-3-50-19-61-30-42-42 102-4 113-2 4 9 11 34 11 46-1 14-3 22-3 28 52-4 73-31 139-24 20 1 13 6 13 6-31 11-27 8-19 9 25-3 19 10 19 10-36 15-57 15-93 34-21 11-49 34-81 31-46 37-157 1-226 11-87 13-372 158-444 195-43 22-92 66-156 58-526-68-595-131-60-76 18-14 484-167 585-200 62-22 19-25 60-59 24-20 51-43 64-54 15-14 29-20 48-26 39 51-70 26-9 109z"/></g><path class="fil17" d="M1844 216c-22 25-166 102-207 131-55 38-142 110-185 148-45 40-116 114-164 170-28 34-116 169-148 189-2 15-150 294-173 360-229 645 63 1324 62 1387 25 31 191 413 237 495 89 157 182 289 269 457 97 190 137 310 165 559 17 154 72 486 196 538l58 4c434 74 1069 57 1521 2 123 28 190-161 224-255 38-105 44-278 71-398 33-141 210-623 285-665-78 166-140 282-204 471-30 88-51 177-69 271-6 34-31 294-30 311l8 13 33-227c19-404 316-880 474-1183 220-420 365-722 338-1321-41-917-826-1525-1645-1660-219-25-415-14-621 28-80 15-197 52-265 77-50 19-207 94-230 98z"/><g clip-path="url(#id1)"><image x="1262" y="1076" width="2822" height="4515" xlink:href="bulb_off_Images\bulb_off_ImgID2.png"/></g><path class="fil2" d="M1954 4654l-58-4c35 79 33 18 32 151-1 72 20 122 20 153 1 45-35 89-12 147 16 44 76 47 48 122-19 55-51 9-57 124-3 50-37 76-64 115-16 23-139 201-148 208-113-43-261-131-378-184-304-139-169-143-305-254-5-21-2-39-62-45-18-2-16-1-36 2-21 18-57 13-90 23-35 12-21 45-30 90-48 1-57-39-153-24-12 29-1 18-4 35-1 1-1 3-1 5-1 1-1 3-2 5 0 1-1 4-2 6-1 5-2-4-7 20 19 12 32 18 61 23l137 105c283 44 192-57 450 122 75 52 279 215 340 241-27 102-134 131 8 274 42 42 212 158 231 182l-80 77c-44 246 154 225 359 207 178-16 355-29 529-62 260-50 850 167 1021 26 55-156 45-131-39-248 61-62 161-105 226-177 113-125 60-164 0-276 116-99 302-220 435-306 141-91 148-38 315-59 43-5 222-113 225-161l-5-39-6-8-145 41-10-94-119-28c-66-12-71 19-101 58-24 30-63 49-86 85-41 63 9 53-73 89-50 22-74 44-122 56l-419 207c-51-120-259-296-272-413l67-59c23-101-108-94-52-205 39-76 69-115 68-215-1-144 8-95 78-194 37-51 82-127 94-194l-8-13-96 180c-79 118-82 111-155 114-172 8-346 20-521 24-210 3-883 12-1050-39 3-26-6-11 24-16zm2551 680l112-4 3-59-68-24-47 87zm-1010 409c-2 55-12 109-11 153 38-2 136-53 181-67l-93-124c-30 6-52 23-77 38zm-2459-482c8 37 40 48 64 78 41 49-2 54 60 84 100 49 567 269 585 290 63-10-72 34 84-166 38-50 86-163 143-155l26 75c-80 63-88 26-61 144 9 38-55 102-82 142-60 87-53 48-170 70-64 12-113-52-156-84-72-53-357-263-444-281-69-15-180 36-226-16-32 4-60-29-82-46-36-27-56-27-92-48 0 0-14-17 35-8 15 2 28 10 39 15 26 14 40 29 69 36-23-41-89-66-143-86 10-9-8-3 16-7 66-11 107 53 159 60-21-29-26-7-26-53 0-17 7-53 11-66l119-32c-11 34-65 40-95 46l1 94 118 5-4 22c9 17-9 2 22 8 60-120-48-92-9-166 21 10 5 0 20 19l19 26zm-143 10l1 58 107 4-37-88c-19 5-53 15-71 26zm943 547c13 8 144 54 164 59-19-32-126-92-4-162-2-25-7-55-20-74-28 6-76 89-105 128-13 18-25 31-35 49z"/><path class="fil18" d="M1907 6317c-134 18-132 213-11 242 87 20 334-8 429-20 262-32 529-55 766-132 11-11 8-9 24-19 11-7 10-5 23-11 189-81 263-134 436-239 44-27 103-79 163-68 51 85-14 113 28 119 37-9 207-157 160-226l-23 29c-1-43 13-23-29-60-2-1-8-6-10-8-19-17 1 7-11-11-12-20 1 6-6-15-25-84 37 52-3-19-24 29-76 10-138 31-201 66-562 284-790 365s-817 338-1044 173l36-131z"/><path class="fil4" d="M1234 6489c15 55 320 74 411 100 117 33-65 34 83 49 248 24 1064 28 1337 21 184-5 492-54 642-43l96-29-2-14-100-29c-171 141-761-76-1021-26-174 33-351 46-529 62-205 18-403 39-359-207-58 14-139 25-196 32-192 24-108 5-85 40l-277 44zM1993 4923c63-4 140 13 209 15l658 6c142-1 292-1 428-17 153-17 250 2 256-186h17l-1-9-21 1-21 106-33-30-32-67-29 75c-41-54 11-72-44-54-31 10-14 9-53 1-37-7-129 6-175 11-358 35-782 6-1137 15l-22 133z"/><path class="fil18" d="M1635 5896c-139 78 78 267 129 288 17-20 8 5 0-52-3-26-1-53 5-72 81-18 165 69 296 135 60 31 133 76 189 84 41 6 20-4 46 14 41 27 36 33 81 9 5 6 21 5 0 26l68-17c10 30 13 0-1 21-6 9-6 7-15 7l11 3 278-95-73-42c-13 18 21 21-45 20-45-2-418-173-458-189-94-39-286-122-377-144-71-16-113 23-134 4z"/><path class="fil6 str1" d="M2509 4670c-18-432 37-918-53-1325-91-406-448-844-479-1102s198-231 327-139 217 428 242 545c26 117-83 138-115 36s-161-396-36-521 420-107 539 19c119 125-25 403-48 496-24 93-75 92-79 0-5-92 0-364 54-472 55-108 135-121 233-96 97 24 298-25 273 222-24 247-333 663-402 1062-69 398-3 840-5 1270"/><path class="fil19" d="M1907 6317l-36 131c227 165 816-92 1044-173s589-299 790-365c62-21 114-2 138-31 40 71-22-65 3 19 7 21-6-5 6 15 12 18-8-6 11 11 2 2 8 7 10 8 42 37 28 17 29 60l23-29c-2-95-109-144-215-123-84 16-643 282-747 327-166 73-332 144-511 201-82 26-184 83-285 56-97-25-160-95-260-107z"/><path class="fil7" d="M3218 6018c-136-1-386 176-482 121l-231-146c158-17 339-19 500-30 77-5 281-21 351-44 14-4 42-15 52-17 48-9 35-19 42 11l14-31c-43-3-253 31-312 38-115 14-230 16-352 18-248 5-468-7-712-22 31 50 461 223 561 265 155 66 133 36 290-29 61-25 248-97 279-134z"/><path class="fil4" d="M4558 1895c0 116-12 277-34 391-4 26-8 22-17 51l2 53c53-165 79-403 78-597-1-484-170-814-407-1090-120-140-239-249-395-357-93-63-380-220-519-241l12 9c30 18 155 68 246 118 258 143 446 288 632 521 220 277 402 661 402 1142z"/><path class="fil18" d="M1745 5713c-34 28-364-148-421-172-78-32-163-93-199-109-77-34-164 47-266 10 46 52 157 1 226 16 87 18 372 228 444 281 43 32 92 96 156 84 117-22 110 17 170-70 27-40 91-104 82-142-27-118-19-81 61-144l-26-75c-57-8-105 105-143 155-156 200-21 156-84 166z"/><path class="fil7" d="M2005 4940l-12-17 22-133c355-9 779 20 1137-15 46-5 138-18 175-11 39 8 22 9 53-1 55-18 3 0 44 54l29-75 32 67 33 30 21-106 21-1-1605-8v-17c-10 89-26 208 50 233z"/><path class="fil4" d="M2033 5832c71 4 299-19 400-23 141-5 274-12 414-19 111-6 775-9 683-159-26 9-33 27-73 40-78 25-205 30-288 40-130 15-276 16-411 20-34 1-907 9-725 101zM2014 5591c245-39 583-36 847-41 130-3 497-20 619-61 57-19 119-96 46-107-26 0 15 15-52 41-135 54-567 71-708 71-51 0-749-9-770 70-13 50-2 28 18 27z"/><path class="fil19" d="M4642 5343l-14 62c-21 2-38-1-53-3-19-2-46 12-42-15-120-69 22-113-6-165-38 28-108 113-139 174-22 42-153 95-208 118-160 67-287 140-423 215-14-23 32-3-17-72-23-32-154-219-165-203-12 53 17 56 81 166 36 63 63 103 91 165 147 6 59 6 215-88 66-39 136-79 201-114 282-156 150-160 486-136l179-116-146 50 144-91-155 74 15-128-135-20 92 40-1 87z"/><path class="fil18" d="M2073 5694c134 16 563-20 730-24 118-2 661 12 676-95l-4-38c-156 30-146 44-342 57-123 9-246 18-367 23-134 6-268 6-402 9-62 1-310-1-329 64l38 4zM3218 6018l232-105c-7-30 6-20-42-11-10 2-38 13-52 17-70 23-274 39-351 44-161 11-342 13-500 30l231 146c96 55 346-122 482-121z"/><path class="fil20" d="M2013 5348c267-41 530-37 807-38 136-1 277-2 409-20 86-12 342-8 307-123-42-2 4 5-75 31-34 11-59 11-95 16-64 9-121 18-190 21-139 8-267 17-410 19l-615 24c-159 9-127 30-161 53 13 32-14 24 23 17z"/><path class="fil7" d="M1764 6184c76 85 204 119 252 145 92 50 188 114 304 61-9-8-203-82-236-96-39-18-194-88-202-121 25 5 468 270 562 169l-11-3c9 0 9 2 15-7 14-21 11 9 1-21l-68 17c21-21 5-20 0-26-45 24-40 18-81-9-26-18-5-8-46-14-56-8-129-53-189-84-131-66-215-153-296-135-6 19-8 46-5 72 8 57 17 32 0 52z"/><path class="fil18" d="M2047 5455c43 1 116-14 172-16 63-3 124-5 188-6 173-1 1030 11 1071-80l-3-53c-35 1-96 33-159 41-65 8-112 17-180 21-292 18-487 15-772 19-64 1-131 1-196 4-84 4-99-4-137 58l16 12z"/><path class="fil7" d="M3475 4644c-15 19-264 31-304 25-49 25-920 24-958 0-63 13-194-4-259-15-30 5-21-10-24 16 167 51 840 42 1050 39 175-4 349-16 521-24 73-3 76 4 155-114l96-180c-1-17 24-277 30-311 18-94 39-183 69-271 64-189 126-305 204-471-75 42-252 524-285 665-27 120-33 293-71 398-34 94-101 271-224 243z"/><path class="fil18" d="M2055 5215c101 4 247-11 361-12 127-2 248-8 372-12 111-4 655-6 690-78l-1-61c-118 49-181 65-335 74l-778 25c-113 2-293-14-340 59l31 5z"/><path class="fil18" d="M2011 5112c167-34 1191-13 1408-76 41-12 73-25 96-61 25-37 3-30 3-30-194 137-1112 86-1436 80-141-3-88 79-71 87z"/><path class="fil4" d="M3349 6439c-2 1-4 3-6 4-29 25-50 31-89 44-34 11-64 21-99 27l6 6 19 16c94 5 403 62 469 15l-44 6c15-27 58-27 71-103 7-39-22-104-11-119-63-73-217 90-316 104z"/><path class="fil7" d="M3091 6407c133-21 434-159 551-226-6 69-399 199-426 218l32 13c8 2 39 3 48 3 121-1 118-31 215-84 82-45 207-69 254-142-42-6 23-34-28-119-60-11-119 41-163 68-173 105-247 158-436 239-13 6-12 4-23 11-16 10-13 8-24 19z"/><path class="fil21" d="M1140 854c32-20 120-155 148-189 48-56 119-130 164-170 43-38 130-110 185-148 41-29 185-106 207-131-63-24 37-16-46-25-54-6-85 12-91 34l-9 66-180-1-6 92h-88l-8 92-103 6c1 23 9 85-5 100l-89 2 3 81-88 13c-18 150-41 57-60 105-14 35 49 32 66 73z"/><path class="fil7" d="M2013 5348c-37 7-10 15-23-17 34-23 2-44 161-53l615-24c143-2 271-11 410-19 69-3 126-12 190-21 36-5 61-5 95-16 79-26 33-33 75-31-23-74-59-1-155 11-330 41-804 40-1153 53-72 2-152 2-216 21-87 25-83 102-13 130l14-34zM2033 5832c-182-92 691-100 725-101 135-4 281-5 411-20 83-10 210-15 288-40 40-13 47-31 73-40l-17-29c-81 41-49 44-165 56-207 21-396 31-606 37-155 4-705-18-775 73-1 44 24 62 47 80l19-16z"/><path class="fil18" d="M3575 5454c-37 29-91 50-57 128 14-15 6 3 18-32 0-1 7-33 8-39 19 37-5 40-13 76 20 33 24 25 39 62 22 58 110 158 119 163 56 9 80-5 151 11 43 9 75-28 109-53l401-274c107-61 217-25 262-33 0 0 16 3 37-16-336-24-204-20-486 136-65 35-135 75-201 114-156 94-68 94-215 88-28-62-55-102-91-165-64-110-93-113-81-166z"/><path class="fil7" d="M2014 5591c-20 1-31 23-18-27 21-79 719-70 770-70 141 0 573-17 708-71 67-26 26-41 52-41l-14-18c-97 94-597 87-772 90-117 2-748-12-795 79-6 62 9 79 57 93l12-35zM2133 5900c4-6-11-23 77-22l265-3c114-3 227-9 341-16 242-15 426-27 656-72l-10 37c25-23 15-29 13-69-21-2-301 35-345 41-227 33-1032 17-1095 73 14 26-10 16 98 31z"/><path class="fil18" d="M2133 5900l701 10c110-2 236 0 342-15 87-11 279-14 286-71l10-37c-230 45-414 57-656 72-114 7-227 13-341 16l-265 3c-88-1-73 16-77 22z"/><path class="fil11" d="M2011 5112c-17-8-70-90 71-87 324 6 1242 57 1436-80-131 22-215 46-359 50-137 5-273 4-410 3-222 0-567 8-768-42-11 30-30 61-30 101-1 42 30 90 60 55z"/><path class="fil22" d="M685 5348c36 21 56 21 92 48 22 17 50 50 82 46 102 37 189-44 266-10 36 16 121 77 199 109 57 24 387 200 421 172-18-21-485-241-585-290-62-30-19-35-60-84-24-30-56-41-64-78l-19-26c-15-19 1-9-20-19-39 74 69 46 9 166l-21 11c-54 24-65 19-89-11l-21-28c-1-4-4-5-5-7l-1-94c30-6 84-12 95-46l-119 32c-4 13-11 49-11 66 0 46 5 24 26 53-52-7-93-71-159-60-24 4-6-2-16 7 54 20 120 45 143 86-29-7-43-22-69-36-11-5-24-13-39-15-49-9-35 8-35 8z"/><path class="fil7" d="M2073 5694l-38-4c19-65 267-63 329-64 134-3 268-3 402-9 121-5 244-14 367-23 196-13 186-27 342-57l4 38c16-20 11-30 8-62-52 4-112 25-168 31-392 40-825 27-1203 53-74 5-124 17-98 105 33 5 34 7 55-8zM2047 5455l-16-12c38-62 53-54 137-58 65-3 132-3 196-4 285-4 480-1 772-19 68-4 115-13 180-21 63-8 124-40 159-41l3 53c18-19 12-35 8-68-33-16-125 15-173 21-185 20-410 27-596 32-134 4-275 5-412 5-104 1-333-29-286 118l28-6z"/><path class="fil19" d="M1635 5896c21 19 63-20 134-4 91 22 283 105 377 144 40 16 413 187 458 189 66 1 32-2 45-20-163-59-343-152-498-225-89-41-156-74-248-111-90-36-240-65-268 27z"/><path class="fil12" d="M1993 4923l12 17c142 10 265 31 419 33 207 2 722 10 903-13 158-21 266-25 234-219h-17c-6 188-103 169-256 186-136 16-286 16-428 17l-658-6c-69-2-146-19-209-15z"/><path class="fil7" d="M2055 5215l-31-5c47-73 227-57 340-59l778-25c154-9 217-25 335-74l1 61c20-19 13-38 11-72-20-1-123 29-165 34-210 27-383 27-595 30-206 2-392 15-613 15-80-1-133 5-99 103 36 2 21 5 38-8z"/><path class="fil20" d="M1100 1108c17-13 153-246 222-323 141-157 109-136 265-283 75-71 216-167 323-224 52-28 127-65 184-88l186-71c15-9 8-3 19-14-97-2-338 108-407 147-239 133-421 293-593 501-49 60-184 260-199 355z"/><path class="fil13" d="M3180 6536l-19-16-6-6c35-6 65-16 99-27 39-13 60-19 89-44 2-1 4-3 6-4-193 3-125-41-245-8-73 20-159 32-225 52 36 18 239 52 301 53z"/><path class="fil23" d="M3717 819c-9-23 2-12-42-47l-289-239c-24-20-27-28-55-39 38 49 219 207 277 252 28 22 74 63 109 73z"/><path class="fil24" d="M3774 1031c-33-56-70-73-88-91l-413-347 458 415c12 10 28 18 43 23z"/><path class="fil23" d="M3413 870c-32-42-256-220-285-228 16 31 66 75 93 97 26 22 168 137 192 131z"/><path class="fil14" d="M3649 6551c78-38 67-151 36-199-14-22-15-15-20-17-11 15 18 80 11 119-13 76-56 76-71 103l44-6z"/><path class="fil25" d="M4533 5387c-4 27 23 13 42 15 15 2 32 5 53 3l14-62-112 9c6 22 14 23 30 38l-27-3zM1006 5382c-31-6-13 9-22-8l4-22-118-5c1 2 4 3 5 7l21 28c24 30 35 35 89 11l21-11z"/><path class="fil26" d="M997 1437l65-203c10-50-1-26-5-34-21 31-85 201-60 237z"/><path class="fil27" d="M1713 1607c30 17 15 2 28 31l33-24-19-43-31 27c-1 1-4 3-5 4-2 1-4 3-6 5z"/><path class="fil28" d="M3372 1631c48 4 40-6 43-8-11-29 10-7-25-24-7 7-4-1-11 13-10 20 1-4-7 19z"/><path class="fil29" d="M3997 1764c23-32 7-26-9-34-6 9-15-12-8 19 5 25-2 9 17 15z"/><path class="fil30" d="M2745 2247c-1-37 8-13-13-35-27 23-27 26 13 35z"/><path class="fil31" d="M2556 1662l28 4c1-32 9-17-15-31-13 11-14 4-13 27zM2053 4006c3 12-8 10 8 16 37 12 15-2 23-8-7-12 1-29-31-8z"/><path class="fil27" d="M1723 948c9-14 14 14 7-17-3-18 5-3-13-16-25 26-28 18 6 33zM2518 923c33-17 30-17 1-33-7 9-9-2-8 15 0 18-2 5 7 18z"/><path class="fil31" d="M2049 417c9 21 0 30 31 8-12-30-9-24-31-8z"/><path class="fil32" d="M2775 694l9-13c6-34 0 21 0-18-13 3-20-4-24 12-5 23 8 14 15 19zM3319 3878c6 9 17 37 26 6 7-28 3-10-7-13-36-11-7-2-19 7z"/><path class="fil33" d="M2958 3015c14 19 4 20 29 8-17-45-19-14-29-8z"/><path class="fil27" d="M1201 1699c7 15-10 11 11 14 36 6 2 4 18-6-13-25-6-22-29-8z"/><path class="fil30" d="M1424 2479c16-20 12 29 9-13-2-21 2-4-9-19-20 15-29 15 0 32z"/><path class="fil34" d="M3899 2989c29 25 19 3 25 0-1-1 14-44-25 0z"/><path class="fil27" d="M1917 2767c17 11 15 9 30 0-23-42-21-8-30 0z"/><path class="fil11" d="M2091 3405c21-31 10-16-9-25-9 22-23 11 9 25zM2257 2716c-6-35 0-8-12-20l-15 8c6 15-1 15 27 12z"/><path class="fil35" d="M3475 4082c26-13 24-12 0-25-7 11-20 2 0 25z"/><path class="fil36" d="M4268 2408c8 6-2 26 26 0-36-33-23-2-26 0z"/><path class="fil11" d="M3674 2225c-12-38 15-26-24-20 5 23-11 12 24 20zM1672 3337c24-26 8-15 0-25-1 2-26 1 0 25z"/><path class="fil37" d="M2992 3815c-12-22 4-33-27-14 15 20-9 5 27 14zM2706 1440c29-3 39-6 9-22l-9 22z"/><path class="fil38" d="M2740 3227c20-27 7-14 0-24-8 8-30 1 0 24zM2675 304c30-5 13 0 20-16-27-13-19-7-20 16z"/><path class="fil39" d="M1618 2225c-11-31 5-15-22-22 5 27-17 11 22 22z"/><path class="fil23" d="M2290 1510c29 12 17 3 25-8-35-17-15-1-25 8z"/><path class="fil36" d="M2999 895c27 27 15 8 25 0-9-6 2-21-25 0z"/><path class="fil40" d="M3921 1176c-6-30 4-11-23-23 11 31-11 18 23 23z"/><path class="fil41" d="M3644 3570c18 13 15 10 26 0-28-27-17-6-26 0z"/><path class="fil39" d="M1578 720c4-6 19 14 0-22-32 36-1 21 0 22z"/><path class="fil42" d="M4159 1510c23-27 11-11 0-24-7 9-24 1 0 24z"/><path class="fil13" d="M2315 4502c31 14 17 5 23-9-30-12-14 3-23 9z"/><path class="fil34" d="M1587 1753c4-8 22 2 0-25-9 10-10-24-7 9 2 16-4 5 7 16z"/><path class="fil43" d="M2646 3769c15-20 11 27 8-12-2-18 2-3-8-16l-7 11c2 19-4 6 7 17z"/><path class="fil44" d="M1149 2006c13 11 10 10 24 0-5-2 20-23-24 0z"/><path class="fil34" d="M1576 1122c27-10 12 4 20-21-49 10 0 0-20 21z"/><path class="fil45" d="M3662 2399c34 25 12 6 22 0-13-9-8-9-22 0z"/><path class="fil38" d="M3432 3066c17 14 14 9 23 0-22-17-9-8-23 0z"/><path class="fil7" d="M3011 779c39-29 3-20 3-20l-3 20z"/><path class="fil40" d="M3579 1228c36 27 13 5 21 0-26-17 34-18-11-6-1 0-4 2-5 2s-3 3-5 4z"/><path class="fil26" d="M2176 1044c3-5 21 21 0-23l-7 11c11 39-24-1 7 12z"/><path class="fil45" d="M2035 4117c22 15-25 16 13 7l11-7c-2-1-5-7-6-5l-18 5z"/><path class="fil38" d="M2211 3881l-5-6c1 1 3 4 5 6z"/></g></svg>